<svg width="295" height="70" viewBox="0 0 295 70" fill="none" xmlns="http://www.w3.org/2000/svg">
<path d="M207.033 17.2288H190.193L178.644 2.7771H248.603V17.2288H227.022V67.2112H207.046V17.2288H207.033Z" fill="black"/>
<path d="M274.089 2.7771H294.065V67.2235H274.089V2.7771Z" fill="black"/>
<path d="M126.802 0C106.865 0 90.7181 15.6735 90.7181 35C90.7181 54.3265 106.878 70 126.802 70C146.726 70 162.886 54.3265 162.886 35C162.886 15.6735 146.726 0 126.802 0ZM126.802 52.0804C117.078 52.0804 109.191 44.4288 109.191 35C109.191 25.5712 117.078 17.9196 126.802 17.9196C136.527 17.9196 144.414 25.5712 144.414 35C144.414 44.4288 136.527 52.0804 126.802 52.0804Z" fill="black"/>
<path d="M54.3639 46.9715C58.8086 45.0092 62.2128 42.2941 64.6021 38.8262C66.9914 35.3583 68.1861 31.298 68.1861 26.633C68.1861 21.968 66.9015 17.5621 64.358 13.9708C61.8017 10.3795 58.1663 7.61501 53.4647 5.68976C48.7502 3.75217 43.2136 2.78955 36.8164 2.78955H0L10.7392 17.1549H35.596C39.6939 17.1549 42.7897 17.9817 44.8708 19.6355C46.9518 21.2892 47.9923 23.6217 47.9923 26.633C47.9923 29.6443 46.9518 31.9644 44.8708 33.5812C42.7897 35.2102 39.6939 36.0247 35.596 36.0247H4.53461V67.236H24.51V50.1185H35.4033L48.2107 67.236H69.5992L54.3639 46.9838V46.9715Z" fill="black"/>
</svg>
