<svg preserveAspectRatio="none" width="100%" height="100%" overflow="visible" style="display: block;" viewBox="0 0 28 28" fill="none" xmlns="http://www.w3.org/2000/svg">
<g id="armchair">
<path id="Vector" d="M22.1667 10.5003V7.0007C22.1667 6.38192 21.9208 5.78849 21.4832 5.35095C21.0457 4.91341 20.4522 4.6676 19.8333 4.6676H8.16667C7.54783 4.6676 6.95434 4.91341 6.51675 5.35095C6.07917 5.78849 5.83333 6.38192 5.83333 7.0007V10.5003M22.1667 10.5003C22.7855 10.5003 23.379 10.7462 23.8166 11.1837C24.2542 11.6212 24.5 12.2147 24.5 12.8334V18.6662C24.5 19.285 24.2542 19.8784 23.8166 20.3159C23.379 20.7535 22.7855 20.9993 22.1667 20.9993M22.1667 10.5003C21.5478 10.5003 20.9543 10.7462 20.5168 11.1837C20.0792 11.6212 19.8333 12.2147 19.8333 12.8334V14.5833C19.8333 14.738 19.7719 14.8863 19.6625 14.9957C19.5531 15.1051 19.4047 15.1665 19.25 15.1665H8.75C8.59529 15.1665 8.44692 15.1051 8.33752 14.9957C8.22812 14.8863 8.16667 14.738 8.16667 14.5833V12.8334C8.16667 12.2147 7.92083 11.6212 7.48325 11.1837C7.04566 10.7462 6.45217 10.5003 5.83333 10.5003M5.83333 10.5003C5.21449 10.5003 4.621 10.7462 4.18342 11.1837C3.74583 11.6212 3.5 12.2147 3.5 12.8334V18.6662C3.5 19.285 3.74583 19.8784 4.18342 20.3159C4.621 20.7535 5.21449 20.9993 5.83333 20.9993M22.1667 20.9993H5.83333M22.1667 20.9993V23.3324M5.83333 20.9993V23.3324" stroke="#435A3B" stroke-width="2" stroke-linecap="round"/>
</g>
</svg>
