<svg preserveAspectRatio="none" width="100%" height="100%" overflow="visible" style="display: block;" viewBox="0 0 28 28" fill="none" xmlns="http://www.w3.org/2000/svg">
<g id="cooking-pot">
<path id="Vector" d="M2.3324 14.0006H25.6676M23.3341 14.0006V23.3342C23.3341 23.9531 23.0882 24.5466 22.6506 24.9842C22.213 25.4218 21.6194 25.6676 21.0006 25.6676H6.99944C6.38055 25.6676 5.78701 25.4218 5.34939 24.9842C4.91177 24.5466 4.66592 23.9531 4.66592 23.3342V14.0006M4.66592 9.33376L23.3341 4.66695M10.3361 7.90986L9.81105 5.79813C9.73582 5.50089 9.71992 5.19174 9.76424 4.88835C9.80857 4.58496 9.91225 4.29328 10.0694 4.02999C10.2265 3.76669 10.434 3.53694 10.6799 3.35387C10.9259 3.17079 11.2055 3.03799 11.5028 2.96304L13.7664 2.40302C14.0644 2.32799 14.3743 2.31256 14.6783 2.35763C14.9824 2.4027 15.2745 2.50738 15.5379 2.66565C15.8014 2.82393 16.0309 3.03268 16.2135 3.27993C16.396 3.52718 16.5279 3.80805 16.6016 4.10641L17.1266 6.20647" stroke="#435A3B" stroke-width="2" stroke-linecap="round"/>
</g>
</svg>
